<?xml version="1.0" standalone="no"?>
<!DOCTYPE svg PUBLIC "-//W3C//DTD SVG 20010904//EN"
 "http://www.w3.org/TR/2001/REC-SVG-20010904/DTD/svg10.dtd">
<svg version="1.0" xmlns="http://www.w3.org/2000/svg"
 width="1024.000000pt" height="1024.000000pt" viewBox="0 0 1024.000000 1024.000000"
 preserveAspectRatio="xMidYMid meet">

<g transform="translate(0.000000,1024.000000) scale(0.100000,-0.100000)"
fill="#000000" stroke="none">
<path d="M2943 8639 c-18 -19 -16 -62 8 -141 23 -79 69 -137 132 -170 l40 -20
-27 -18 c-59 -38 -98 -130 -82 -194 9 -35 68 -69 107 -61 56 13 139 108 139
160 0 8 5 15 10 15 6 0 10 -6 10 -12 0 -7 9 -28 21 -47 20 -33 20 -33 41 -15
11 11 29 31 38 47 l17 27 13 -42 c31 -107 80 -158 151 -158 47 0 85 31 100 80
15 50 -6 112 -56 163 -34 35 -34 35 -11 41 13 3 47 24 74 45 60 48 101 124
109 205 9 90 -17 104 -124 65 -95 -35 -158 -83 -206 -156 -40 -61 -42 -63 -45
-36 -5 45 -33 124 -42 118 -5 -3 -19 -37 -31 -75 -13 -39 -26 -67 -30 -63 -4
5 -12 25 -19 46 -16 51 -101 135 -174 171 -65 33 -144 45 -163 25z"/>
<path d="M3927 8595 c-41 -41 -24 -171 29 -226 15 -16 22 -29 15 -29 -6 0 -23
-12 -36 -26 -28 -30 -35 -100 -13 -122 22 -22 81 -14 130 17 l45 29 17 -39
c31 -69 96 -104 141 -75 21 14 25 24 25 69 0 30 -6 62 -15 74 -14 20 -13 23
31 48 52 30 104 104 104 147 0 18 -8 33 -25 44 -22 14 -31 15 -71 4 -25 -7
-72 -33 -105 -56 -53 -39 -58 -41 -64 -24 -11 35 -94 139 -122 153 -50 26 -70
28 -86 12z"/>
<path d="M4590 8431 c-16 -31 -12 -35 9 -10 18 22 19 22 44 6 32 -21 74 -62
105 -102 30 -39 17 -10 -16 33 -27 37 -98 92 -118 92 -7 0 -18 -9 -24 -19z"/>
<path d="M4571 8374 c0 -11 3 -14 6 -6 3 7 2 16 -1 19 -3 4 -6 -2 -5 -13z"/>
<path d="M4563 8310 c0 -25 2 -35 4 -22 2 12 2 32 0 45 -2 12 -4 2 -4 -23z"/>
<path d="M4781 8270 c14 -31 19 -36 19 -24 0 6 -7 19 -16 30 -14 18 -14 18 -3
-6z"/>
<path d="M5043 8283 c15 -2 37 -2 50 0 12 2 0 4 -28 4 -27 0 -38 -2 -22 -4z"/>
<path d="M4960 8270 c-8 -5 -10 -10 -5 -10 6 0 17 5 25 10 8 5 11 10 5 10 -5
0 -17 -5 -25 -10z"/>
<path d="M5137 8270 c6 -8 13 -31 16 -50 l4 -35 1 36 c1 24 -4 41 -15 50 -16
12 -16 12 -6 -1z"/>
<path d="M4570 8244 c0 -10 5 -26 10 -34 8 -11 9 -7 4 15 -8 37 -14 45 -14 19z"/>
<path d="M4882 8230 c-23 -17 -42 -33 -42 -37 0 -3 8 1 18 9 9 9 33 25 52 37
19 11 30 21 24 21 -6 0 -30 -14 -52 -30z"/>
<path d="M4800 8225 c0 -5 5 -17 10 -25 5 -8 10 -10 10 -5 0 6 -5 17 -10 25
-5 8 -10 11 -10 5z"/>
<path d="M5140 8171 c0 -6 -21 -35 -47 -64 l-47 -52 43 40 c45 42 66 73 57 83
-3 3 -6 0 -6 -7z"/>
<path d="M4550 8135 c-33 -19 -21 -19 21 0 19 8 27 14 19 14 -8 0 -26 -6 -40
-14z"/>
<path d="M4510 8095 c-6 -8 -10 -19 -8 -24 1 -6 8 1 15 14 13 28 11 31 -7 10z"/>
<path d="M3810 8072 c-23 -12 -45 -38 -64 -72 -25 -45 -30 -66 -30 -127 -1
-40 -3 -73 -6 -73 -3 1 -16 7 -30 15 -56 32 -185 12 -237 -37 -36 -33 -29 -62
22 -101 57 -44 124 -64 170 -50 34 11 34 11 28 -17 -7 -39 24 -127 52 -146 14
-9 39 -14 61 -12 53 4 79 42 78 114 0 43 3 53 14 49 7 -3 30 -8 50 -11 77 -12
141 67 112 137 -15 35 -63 69 -97 69 -27 0 -27 0 -8 36 24 47 19 122 -12 185
-32 61 -50 69 -103 41z"/>
<path d="M4492 8025 c0 -16 2 -22 5 -12 2 9 2 23 0 30 -3 6 -5 -1 -5 -18z"/>
<path d="M4968 8033 c7 -3 16 -2 19 1 4 3 -2 6 -13 5 -11 0 -14 -3 -6 -6z"/>
<path d="M2037 7983 c-26 -25 8 -138 57 -191 l21 -24 -30 -21 c-73 -52 -126
-133 -111 -172 8 -21 65 -33 106 -23 19 5 47 23 63 41 15 17 27 26 27 20 0 -6
12 -25 26 -42 30 -36 65 -40 94 -11 40 40 14 158 -39 175 -26 8 -18 25 11 25
29 0 88 62 88 94 0 40 -35 69 -73 62 -17 -3 -39 -14 -49 -23 -15 -13 -18 -14
-18 -1 0 46 -143 121 -173 91z"/>
<path d="M4699 7973 c-13 -17 -13 -17 6 -3 11 8 22 16 24 17 2 2 0 3 -6 3 -6
0 -17 -8 -24 -17z"/>
<path d="M4751 7954 c0 -11 3 -14 6 -6 3 7 2 16 -1 19 -3 4 -6 -2 -5 -13z"/>
<path d="M4981 7954 c0 -11 3 -14 6 -6 3 7 2 16 -1 19 -3 4 -6 -2 -5 -13z"/>
<path d="M4568 7933 c7 -3 16 -2 19 1 4 3 -2 6 -13 5 -11 0 -14 -3 -6 -6z"/>
<path d="M4760 7924 c0 -6 7 -19 16 -30 14 -18 14 -18 3 6 -14 31 -19 36 -19
24z"/>
<path d="M4977 7861 c-4 -17 -3 -21 5 -13 5 5 8 16 6 23 -3 8 -7 3 -11 -10z"/>
<path d="M4805 7850 c10 -11 20 -20 23 -20 3 0 -3 9 -13 20 -10 11 -20 20 -23
20 -3 0 3 -9 13 -20z"/>
<path d="M4847 7819 c7 -7 15 -10 18 -7 3 3 -2 9 -12 12 -14 6 -15 5 -6 -5z"/>
<path d="M4898 7803 c6 -2 18 -2 25 0 6 3 1 5 -13 5 -14 0 -19 -2 -12 -5z"/>
<path d="M2635 7679 c-48 -43 -67 -83 -67 -141 0 -26 -3 -48 -6 -48 -3 0 -16
10 -29 22 -33 30 -47 14 -34 -41 5 -23 6 -40 3 -38 -113 60 -236 59 -271 -5
-14 -24 -13 -29 13 -67 44 -64 91 -94 153 -99 l53 -4 0 -40 c0 -47 24 -92 57
-107 34 -16 53 -14 90 9 34 20 59 83 49 120 -4 11 -9 29 -12 41 -5 19 -3 19
48 -7 57 -29 136 -36 162 -15 21 18 26 62 11 98 -14 34 -67 73 -98 73 -16 0
-15 3 5 31 46 62 20 202 -43 234 -38 20 -43 19 -84 -16z"/>
<path d="M3430 7518 c-11 -18 -23 -48 -26 -65 -5 -26 -11 -33 -30 -33 -34 0
-66 -35 -62 -68 2 -22 9 -28 36 -30 18 -2 39 1 46 7 10 8 13 3 14 -25 3 -70
50 -85 87 -27 14 23 28 32 47 33 72 1 112 56 67 93 -18 15 -34 18 -72 14 -40
-3 -47 -2 -43 12 15 49 16 69 7 94 -15 38 -46 35 -71 -5z"/>
<path d="M5474 7524 c-22 -32 -21 -113 1 -157 11 -21 12 -33 5 -35 -29 -10
-61 -50 -66 -82 -7 -44 23 -80 67 -80 33 0 100 25 110 41 3 6 9 -5 13 -25 8
-42 59 -96 91 -96 57 0 95 83 61 135 -16 24 -16 26 1 31 74 22 134 88 137 148
1 30 0 31 -48 34 -39 3 -63 -4 -123 -32 -41 -20 -76 -36 -78 -36 -1 0 -6 15
-9 34 -8 44 -57 111 -95 131 -40 20 -48 19 -67 -11z"/>
<path d="M5002 7514 c-12 -8 -27 -25 -33 -37 -9 -18 -7 -18 13 4 12 15 32 32
43 38 11 6 15 11 10 11 -6 0 -21 -7 -33 -16z"/>
<path d="M5079 7507 c29 -41 61 -132 61 -175 0 -20 -9 -52 -20 -69 -11 -18
-17 -33 -15 -33 14 0 45 70 45 102 0 49 -35 142 -67 176 l-25 27 21 -28z"/>
<path d="M3934 7448 c-12 -40 -83 -149 -136 -210 -28 -33 -116 -113 -195 -179
-79 -67 -166 -148 -193 -182 -59 -73 -111 -176 -135 -269 -10 -38 -20 -68 -23
-68 -13 0 -137 108 -195 170 -78 82 -116 152 -169 310 l-38 115 4 -120 c8
-195 57 -339 196 -575 101 -171 170 -320 223 -480 37 -112 77 -285 77 -336 0
-6 -30 18 -67 55 -81 80 -161 122 -300 157 -141 35 -152 30 -72 -33 84 -67
191 -180 235 -249 99 -155 135 -346 114 -602 -12 -152 -27 -231 -71 -384 l-31
-107 -72 -11 c-39 -7 -134 -25 -210 -41 -77 -16 -141 -28 -143 -26 -1 2 -3
347 -3 768 0 420 -3 774 -6 787 -6 22 -7 22 -205 22 -198 0 -199 0 -204 -22
-3 -13 -5 -182 -3 -376 l3 -352 -363 0 -363 0 3 375 3 375 -212 0 -213 0 1
-947 c0 -522 3 -955 7 -965 6 -14 29 -16 210 -15 l203 2 -1 413 0 412 362 0
363 0 -2 -307 -2 -308 -108 -59 c-111 -60 -337 -205 -330 -212 2 -2 17 0 33 6
43 14 249 47 404 64 285 32 472 40 885 40 779 -1 1265 -54 1986 -218 85 -19
163 -38 172 -42 9 -3 17 -4 17 -1 0 8 -269 187 -280 187 -6 0 -10 3 -10 8 0 4
54 6 120 6 l120 -1 1 776 c1 489 4 765 10 746 5 -16 86 -343 179 -725 93 -382
176 -717 183 -743 l12 -48 172 -3 172 -4 47 197 c25 108 74 313 109 456 35
143 98 408 142 589 l78 328 3 -784 2 -783 180 -1 180 -1 0 968 0 969 -293 0
-294 0 -57 -252 c-153 -672 -249 -1083 -256 -1102 -5 -16 -12 1 -28 69 -117
506 -294 1263 -297 1273 -3 9 -70 12 -290 12 l-285 0 0 -945 c0 -520 -2 -945
-5 -945 -3 0 -31 13 -63 29 -253 128 -676 268 -987 327 -77 14 -141 27 -142
28 -7 5 -54 314 -59 390 l-7 96 327 0 c387 0 421 5 542 80 92 56 130 93 177
173 51 85 72 178 72 322 -1 94 -6 135 -23 192 -46 148 -158 267 -305 324 -107
41 -214 56 -303 42 -38 -6 -71 -9 -73 -7 -1 1 9 18 23 36 34 45 71 129 91 203
16 61 21 175 8 174 -5 0 -27 -39 -50 -87 -77 -160 -219 -284 -465 -408 -59
-30 -111 -54 -116 -54 -14 0 -120 205 -141 274 -51 167 -46 338 14 465 42 88
78 140 195 281 156 188 230 327 245 458 7 63 2 81 -11 40z m304 -1674 c114
-37 172 -124 172 -260 0 -135 -55 -213 -176 -250 -35 -10 -106 -14 -277 -14
l-230 0 7 62 c10 85 47 198 86 258 43 67 152 167 214 196 61 28 132 31 204 8z"/>
<path d="M3039 7436 c-10 -21 -6 -35 20 -91 23 -50 31 -80 30 -119 -1 -46 -2
-48 -9 -19 -20 85 -89 82 -106 -5 -10 -49 3 -81 40 -98 31 -15 36 -15 79 4 26
12 47 19 47 17 0 -2 -7 -20 -17 -39 -20 -42 -9 -91 24 -113 20 -14 24 -13 49
12 22 22 25 33 22 70 -3 40 -1 42 16 33 26 -14 93 -4 117 18 28 25 25 84 -4
112 -25 24 -82 32 -129 19 -21 -5 -26 -4 -23 6 8 19 -20 104 -46 141 -21 31
-76 76 -92 76 -4 0 -12 -11 -18 -24z"/>
<path d="M4935 7413 c-9 -20 -14 -40 -13 -45 2 -5 11 11 20 37 20 54 15 61 -7
8z"/>
<path d="M1960 7364 c-22 -25 -25 -162 -6 -208 9 -22 19 -37 21 -34 3 3 -1 18
-10 34 -15 30 -19 102 -9 167 5 30 11 37 30 37 31 0 89 -69 125 -149 28 -60
30 -63 47 -47 27 24 34 20 27 -16 -5 -25 -4 -29 4 -18 13 18 14 70 3 70 -5 0
-17 -9 -27 -20 -18 -20 -19 -20 -50 47 -20 43 -49 83 -78 111 -52 47 -59 49
-77 26z"/>
<path d="M4911 7334 c0 -11 3 -14 6 -6 3 7 2 16 -1 19 -3 4 -6 -2 -5 -13z"/>
<path d="M4831 7268 c1 -13 5 -34 10 -48 7 -19 7 -16 3 14 -4 26 -1 42 8 47
10 7 9 9 -4 9 -12 0 -18 -7 -17 -22z"/>
<path d="M4877 7269 c7 -7 15 -10 18 -7 3 3 -2 9 -12 12 -14 6 -15 5 -6 -5z"/>
<path d="M5122 7200 c53 -16 88 -49 99 -96 7 -25 14 -43 16 -40 2 2 -1 23 -7
45 -12 46 -76 102 -114 100 -17 -1 -16 -2 6 -9z"/>
<path d="M4656 7175 c-44 -16 -96 -62 -95 -84 0 -14 1 -14 6 -1 21 57 109 94
209 88 35 -2 58 0 51 4 -20 12 -129 8 -171 -7z"/>
<path d="M2242 7130 c-18 -4 -36 -11 -40 -15 -4 -5 1 -5 10 -2 33 12 134 18
163 9 56 -16 38 -68 -42 -121 -36 -24 -53 -29 -82 -25 -30 4 -33 3 -18 -7 33
-20 85 -1 138 50 41 40 50 54 47 77 -2 20 -10 30 -28 35 -33 9 -107 9 -148 -1z"/>
<path d="M1925 7105 c-74 -31 -103 -109 -54 -148 19 -15 33 -18 68 -13 44 6
111 40 111 57 0 4 -16 -3 -36 -16 -49 -33 -126 -35 -147 -4 -27 37 6 92 67
113 21 7 35 16 30 19 -5 3 -23 -1 -39 -8z"/>
<path d="M5009 7057 c23 -29 162 -93 147 -68 -4 6 -15 11 -25 11 -9 0 -43 16
-75 35 -32 19 -53 29 -47 22z"/>
<path d="M4560 7056 c0 -23 107 -86 145 -85 11 0 -4 8 -33 18 -29 10 -66 31
-83 47 -16 15 -29 24 -29 20z"/>
<path d="M5220 7043 c0 -6 -12 -23 -27 -38 -24 -24 -25 -26 -6 -16 24 12 48
49 39 59 -3 3 -6 1 -6 -5z"/>
<path d="M5001 7025 c1 -19 18 -51 18 -35 0 8 -4 22 -9 30 -5 8 -9 11 -9 5z"/>
<path d="M2064 6936 c2 -61 5 -71 30 -92 34 -30 79 -31 106 -2 15 16 20 34 19
72 -1 28 -3 40 -6 26 -2 -14 -6 -40 -9 -57 -6 -39 -31 -55 -71 -47 -38 8 -55
36 -64 109 l-8 60 3 -69z"/>
<path d="M2621 6971 c-17 -19 -38 -57 -47 -87 l-15 -54 -37 17 c-20 9 -57 18
-82 21 -36 3 -49 0 -64 -17 -30 -33 -15 -65 43 -90 27 -11 54 -21 60 -21 6 0
7 -11 2 -28 -27 -94 89 -124 127 -32 16 36 32 53 32 31 0 -5 13 -14 30 -21 67
-28 111 57 57 108 -13 12 -29 22 -35 22 -15 0 -15 6 -1 32 15 27 3 101 -20
130 l-19 22 -31 -33z"/>
<path d="M4758 6973 c6 -2 18 -2 25 0 6 3 1 5 -13 5 -14 0 -19 -2 -12 -5z"/>
<path d="M4822 6940 c0 -19 2 -27 5 -17 2 9 2 25 0 35 -3 9 -5 1 -5 -18z"/>
<path d="M5018 6918 c-4 -40 -11 -57 -32 -75 -15 -13 -23 -23 -18 -23 24 0 55
52 60 100 2 27 2 50 0 50 -3 0 -8 -23 -10 -52z"/>
<path d="M4830 6887 c0 -21 43 -67 62 -66 7 0 3 5 -9 11 -12 6 -29 25 -37 42
-10 20 -16 25 -16 13z"/>
<path d="M4918 6813 c6 -2 18 -2 25 0 6 3 1 5 -13 5 -14 0 -19 -2 -12 -5z"/>
<path d="M4650 6710 c-22 -22 -42 -51 -46 -64 -6 -24 -7 -24 -30 -9 -24 15
-24 15 -24 -20 l0 -36 -27 15 c-56 28 -137 6 -149 -41 -11 -45 54 -115 108
-115 9 0 13 -14 13 -46 0 -38 5 -50 26 -66 51 -38 119 13 119 90 0 39 5 40 36
3 31 -37 69 -47 100 -26 33 21 39 56 19 99 -10 20 -20 36 -24 36 -3 0 -12 4
-19 9 -11 7 -11 14 3 41 20 38 23 117 6 149 -19 35 -64 28 -111 -19z"/>
<path d="M5081 6651 c-44 -69 -64 -133 -59 -191 4 -36 2 -47 -8 -43 -24 9 -93
-18 -114 -45 -18 -21 -21 -36 -17 -72 9 -80 90 -121 165 -83 l39 19 -5 -48
c-9 -92 20 -138 89 -138 22 0 49 5 60 10 26 14 49 62 49 102 l0 33 78 0 c66 1
85 5 130 30 61 33 75 52 70 97 -2 24 -11 37 -36 51 -40 23 -148 34 -191 19
-36 -13 -36 -11 -16 28 9 17 13 30 10 30 -11 0 -70 -32 -89 -49 -18 -15 -19
-15 -11 4 23 59 10 166 -31 246 -21 42 -29 49 -53 49 -24 0 -35 -9 -60 -49z"/>
<path d="M3697 6596 c-93 -33 -147 -110 -147 -207 0 -68 25 -124 77 -170 104
-94 240 -70 317 55 56 90 35 211 -50 285 -60 53 -119 64 -197 37z"/>
<path d="M2663 6503 c-27 -40 -24 -145 5 -200 l22 -43 -51 0 c-76 0 -125 -18
-164 -61 -42 -47 -37 -75 21 -104 41 -21 143 -28 175 -12 13 6 18 2 23 -19 13
-51 44 -84 80 -84 64 0 84 64 47 147 l-19 42 41 -15 c94 -34 174 17 137 87
-12 21 -80 59 -107 59 -15 0 -18 9 -18 48 -1 54 -25 111 -67 153 -41 40 -100
41 -125 2z"/>
<path d="M7042 4993 l3 -968 188 -2 187 -2 1 777 c0 427 4 766 9 752 4 -14 96
-333 204 -710 109 -377 206 -714 216 -750 l19 -65 196 0 c167 -1 196 2 200 15
14 46 302 1066 350 1240 31 113 61 214 65 225 5 11 9 -310 9 -730 l0 -750 191
-2 190 -3 0 970 0 970 -302 -2 -303 -3 -63 -225 c-34 -124 -121 -436 -193
-695 -72 -258 -134 -481 -138 -495 -8 -27 11 -92 -296 1005 -47 171 -93 334
-101 363 l-15 52 -310 0 -309 0 2 -967z"/>
<path d="M4522 3825 c-16 -34 -15 -45 3 -45 8 0 15 3 15 8 0 4 11 20 25 35
l26 27 -29 0 c-21 0 -32 -7 -40 -25z"/>
<path d="M1502 3744 c-43 -22 -66 -67 -66 -129 0 -117 107 -181 201 -120 69
46 69 194 -1 240 -37 25 -95 29 -134 9z m121 -76 c33 -68 0 -148 -62 -148 -64
0 -96 105 -50 164 17 22 28 27 58 24 30 -3 39 -9 54 -40z"/>
<path d="M1784 3750 c-27 -11 -54 -48 -54 -75 0 -38 27 -62 90 -79 34 -10 64
-24 67 -32 17 -44 -75 -62 -102 -20 -20 30 -62 30 -57 1 10 -55 81 -87 146
-65 42 14 66 43 66 82 0 38 -30 62 -101 82 -53 14 -60 19 -57 39 4 32 71 38
90 8 13 -22 58 -29 58 -10 0 24 -24 52 -55 65 -38 16 -60 17 -91 4z"/>
<path d="M3424 3741 c-64 -39 -51 -110 25 -137 90 -31 93 -33 89 -57 -2 -18
-10 -23 -45 -25 -33 -2 -44 1 -57 19 -20 29 -56 36 -56 11 0 -29 28 -60 66
-72 75 -25 144 14 144 82 0 44 -19 60 -92 78 -53 14 -71 30 -62 54 10 27 94
19 94 -10 0 -9 11 -14 29 -14 24 0 28 4 24 19 -15 58 -104 87 -159 52z"/>
<path d="M3805 3746 c-61 -27 -89 -115 -62 -191 21 -58 56 -80 132 -81 38 0
70 -6 80 -14 12 -10 19 -10 28 -1 8 8 6 15 -11 27 -20 14 -21 17 -7 38 38 58
24 171 -26 208 -34 25 -96 32 -134 14z m105 -56 c14 -14 20 -33 20 -64 0 -60
-8 -80 -27 -65 -11 9 -17 9 -26 -1 -9 -10 -9 -13 1 -17 23 -9 12 -23 -18 -23
-47 0 -70 30 -70 93 0 40 5 59 20 75 26 28 73 29 100 2z"/>
<path d="M5321 3743 c-37 -19 -71 -79 -71 -128 0 -16 9 -49 20 -73 23 -51 73
-77 129 -68 37 6 86 46 94 77 8 29 -40 25 -65 -6 -25 -32 -70 -33 -98 -3 -15
16 -20 35 -20 73 0 38 5 57 20 73 28 30 73 29 98 -3 25 -31 73 -35 65 -6 -16
62 -109 97 -172 64z"/>
<path d="M5601 3742 c-48 -24 -73 -74 -68 -138 7 -97 79 -152 166 -125 59 17
86 61 86 136 -1 71 -22 111 -72 131 -43 18 -71 18 -112 -4z m109 -54 c29 -31
28 -113 -2 -145 -27 -29 -71 -30 -98 -3 -15 15 -20 33 -20 75 0 42 5 60 20 75
27 27 74 26 100 -2z"/>
<path d="M6960 3742 c-62 -31 -88 -120 -56 -197 41 -96 183 -97 227 -1 24 52
23 90 -1 144 -30 67 -100 89 -170 54z m110 -54 c14 -15 20 -35 20 -69 0 -78
-52 -120 -110 -89 -43 23 -44 145 -2 169 29 17 70 12 92 -11z"/>
<path d="M8440 3742 c-42 -20 -70 -72 -70 -127 0 -124 131 -189 213 -106 26
25 31 40 35 92 6 75 -14 120 -63 143 -43 21 -72 20 -115 -2z m109 -58 c44 -56
14 -164 -45 -164 -39 0 -61 17 -74 55 -13 40 -5 91 18 118 24 27 76 22 101 -9z"/>
<path d="M1170 3615 l0 -135 30 0 30 0 0 60 0 60 55 0 55 0 0 -60 c0 -57 1
-60 25 -60 l25 0 0 135 0 135 -25 0 c-24 0 -25 -3 -25 -55 l0 -55 -55 0 -55 0
0 55 c0 54 0 55 -30 55 l-30 0 0 -135z"/>
<path d="M1980 3615 l0 -135 28 0 c26 0 27 1 24 50 l-4 50 50 0 c70 0 102 27
102 84 0 67 -27 86 -123 86 l-77 0 0 -135z m138 83 c34 -34 -1 -82 -56 -76
-21 2 -28 9 -30 31 -2 16 -1 35 2 43 7 17 67 19 84 2z"/>
<path d="M2230 3615 l0 -135 25 0 25 0 0 135 0 135 -25 0 -25 0 0 -135z"/>
<path d="M2320 3727 c0 -20 4 -22 40 -19 l40 4 0 -116 0 -116 25 0 25 0 0 116
0 116 40 -4 c36 -3 40 -1 40 19 0 22 -2 23 -105 23 -103 0 -105 -1 -105 -23z"/>
<path d="M2570 3628 c-23 -68 -45 -129 -47 -135 -4 -9 5 -13 25 -13 26 0 31 5
37 30 6 28 9 30 56 30 47 0 51 -2 60 -30 9 -24 17 -30 39 -30 l29 0 -47 135
c-47 134 -47 135 -78 135 -31 0 -32 -1 -74 -122z m104 -25 c7 -21 4 -23 -28
-23 -41 0 -41 0 -19 65 l16 49 12 -34 c7 -19 15 -45 19 -57z"/>
<path d="M2810 3615 l0 -135 95 0 95 0 0 26 c0 25 -1 25 -67 23 l-68 -3 -3
112 c-3 112 -3 112 -27 112 l-25 0 0 -135z"/>
<path d="M3140 3615 l0 -135 25 0 c23 0 25 3 25 50 l0 50 50 0 c65 0 100 30
100 85 0 25 -8 44 -25 60 -21 22 -33 25 -100 25 l-75 0 0 -135z m131 85 c11
-6 19 -21 19 -35 0 -28 -26 -45 -69 -45 -30 0 -31 1 -31 45 0 44 1 45 31 45
17 0 39 -5 50 -10z"/>
<path d="M3630 3615 l0 -135 30 0 30 0 0 135 0 135 -30 0 -30 0 0 -135z"/>
<path d="M4030 3650 c0 -70 5 -110 15 -130 28 -54 129 -64 173 -17 18 19 21
37 24 135 l3 112 -27 0 -28 0 0 -103 c0 -111 -6 -127 -49 -127 -51 0 -56 11
-59 125 -4 103 -4 105 -28 105 -24 0 -24 -1 -24 -100z"/>
<path d="M4300 3615 l0 -135 25 0 25 0 0 135 0 135 -25 0 -25 0 0 -135z"/>
<path d="M4440 3628 c-23 -68 -45 -129 -47 -135 -4 -9 5 -13 25 -13 25 0 30 5
36 30 5 29 8 30 56 30 48 0 52 -2 61 -30 9 -24 17 -30 40 -30 l28 0 -47 135
c-47 135 -47 135 -78 135 -31 0 -32 -1 -74 -122z m104 -25 c7 -21 4 -23 -28
-23 -20 0 -36 4 -36 9 0 7 12 48 27 91 5 14 15 -7 37 -77z"/>
<path d="M4640 3727 c0 -20 4 -22 40 -19 l40 4 0 -116 0 -116 25 0 25 0 0 116
0 116 40 -4 c36 -3 40 -1 40 19 0 22 -2 23 -105 23 -103 0 -105 -1 -105 -23z"/>
<path d="M4890 3615 l0 -135 25 0 c24 0 25 3 25 55 l0 55 38 0 c51 0 70 -17
74 -65 3 -36 6 -40 32 -43 23 -3 28 0 22 13 -3 9 -6 32 -6 50 0 19 -6 40 -14
47 -11 12 -11 18 5 37 25 30 24 62 -2 95 -19 25 -25 26 -110 26 l-89 0 0 -135z
m146 87 c17 -11 22 -35 12 -54 -6 -14 -21 -18 -58 -18 l-50 0 0 40 0 40 43 0
c23 0 47 -4 53 -8z"/>
<path d="M5158 3615 l-3 -135 28 0 27 0 0 135 0 135 -24 0 -25 0 -3 -135z"/>
<path d="M5940 3615 c0 -133 0 -135 23 -135 22 0 22 1 19 116 -2 80 0 114 7
109 6 -3 11 -14 11 -23 0 -9 10 -59 22 -110 21 -89 23 -93 47 -90 24 3 28 11
52 113 l27 110 1 -112 1 -113 25 0 25 0 0 135 0 135 -40 0 c-43 0 -44 -1 -71
-130 -6 -30 -14 -58 -18 -62 -4 -5 -17 37 -30 92 l-22 100 -40 0 -39 0 0 -135z"/>
<path d="M6292 3638 c-60 -172 -58 -158 -23 -158 25 0 30 5 36 30 6 28 9 30
56 30 47 0 51 -2 60 -30 9 -23 17 -30 38 -30 l27 0 -45 135 -46 135 -31 0
c-32 0 -32 -1 -72 -112z m92 -10 l14 -48 -39 0 -38 0 15 43 c29 84 24 83 48 5z"/>
<path d="M6520 3615 l0 -135 31 0 30 0 -2 53 c-3 50 -2 52 25 55 59 7 75 -4
82 -58 6 -46 9 -50 33 -50 27 0 27 1 21 49 -3 27 -12 56 -19 65 -11 13 -10 18
3 31 23 23 20 81 -4 105 -17 17 -33 20 -110 20 l-90 0 0 -135z m164 73 c19
-31 -4 -53 -60 -56 l-49 -3 2 38 c1 21 2 39 2 41 1 2 22 2 47 0 31 -2 51 -9
58 -20z"/>
<path d="M6790 3615 l0 -135 25 0 25 0 0 135 0 135 -25 0 -25 0 0 -135z"/>
<path d="M7295 3615 c0 -133 0 -135 22 -135 22 0 22 4 25 118 l3 117 28 -117
c27 -110 30 -118 53 -118 17 0 25 7 31 28 3 15 17 68 29 117 l22 90 1 -117 1
-118 25 0 25 0 0 136 0 135 -42 -3 -43 -3 -21 -93 c-12 -51 -24 -95 -27 -98
-2 -3 -15 40 -27 96 l-23 100 -41 0 -41 0 0 -135z"/>
<path d="M7600 3615 l0 -135 101 0 c98 0 100 0 97 23 -3 20 -8 22 -75 22 l-73
0 0 38 0 37 65 0 c58 0 65 2 65 20 0 18 -7 20 -65 20 l-65 0 0 36 0 36 70 -4
c67 -3 70 -2 70 20 0 21 -3 22 -95 22 l-95 0 0 -135z"/>
<path d="M7840 3615 l0 -135 25 0 c25 0 25 0 25 98 l0 97 56 -97 c49 -87 58
-98 83 -98 l28 0 -1 135 -1 135 -25 0 -25 0 3 -90 c2 -49 0 -90 -5 -90 -4 0
-30 41 -57 90 -44 81 -52 90 -78 90 l-28 0 0 -135z"/>
<path d="M8110 3615 l0 -135 69 0 c38 0 81 4 95 10 69 26 83 184 21 238 -22
19 -38 22 -106 22 l-79 0 0 -135z m150 75 c15 -15 20 -33 20 -74 0 -47 -4 -57
-26 -75 -15 -12 -41 -21 -60 -21 l-34 0 0 95 0 95 40 0 c27 0 47 -7 60 -20z"/>
<path d="M8645 3728 c1 -20 6 -21 68 -19 37 1 67 -1 67 -4 0 -4 -31 -47 -70
-97 -97 -126 -97 -128 41 -128 108 0 110 1 107 22 -3 20 -8 21 -75 19 -40 -1
-73 0 -73 4 0 3 32 46 70 94 39 49 70 98 70 110 0 20 -5 21 -103 21 -100 0
-104 -1 -102 -22z"/>
<path d="M8926 3619 c-25 -72 -46 -133 -46 -135 0 -2 13 -4 29 -4 25 0 31 5
36 30 6 28 9 30 56 30 47 0 51 -2 60 -30 9 -24 17 -30 39 -30 l29 0 -47 135
c-47 134 -47 135 -78 135 -31 0 -32 -1 -78 -131z m108 -16 c7 -21 4 -23 -28
-23 -20 0 -36 4 -36 9 0 7 12 48 27 91 5 14 15 -7 37 -77z"/>
<path d="M10040 3263 c-115 -14 -614 -72 -1355 -158 -214 -25 -559 -66 -765
-90 -421 -50 -2650 -308 -3285 -380 -121 -14 -373 -43 -560 -65 -187 -22 -419
-49 -515 -60 -409 -46 -1412 -162 -2170 -250 -140 -16 -491 -57 -780 -90 -289
-33 -544 -62 -567 -65 l-43 -6 0 -1050 0 -1049 5120 0 5120 0 0 1640 0 1640
-42 -1 c-24 -1 -95 -8 -158 -16z m-403 -1199 c72 -58 73 -65 70 -599 -2 -531
-1 -521 -80 -573 l-41 -27 -2394 -3 c-2327 -2 -2395 -2 -2437 17 -23 10 -55
36 -71 57 l-29 37 -3 499 c-2 481 -2 499 18 537 18 37 55 70 90 84 8 3 1100 5
2427 4 l2411 -2 39 -31z"/>
<path d="M4761 2052 c-19 -9 -44 -30 -55 -45 -21 -28 -21 -39 -21 -522 0 -483
0 -494 21 -521 11 -15 31 -36 45 -46 23 -18 115 -18 2423 -18 2384 0 2399 0
2431 20 66 41 66 36 63 574 -3 469 -4 485 -23 512 -11 15 -36 35 -55 45 -33
18 -117 19 -2415 19 -2246 0 -2382 -1 -2414 -18z m477 -539 l3 -303 -51 0
c-47 0 -50 1 -50 26 l0 26 -30 -26 c-88 -73 -227 -17 -261 106 -16 62 -6 158
22 209 37 65 69 84 144 84 57 0 67 -3 94 -29 l31 -30 0 123 0 122 48 -3 47 -3
3 -302z m1419 0 l3 -303 -50 0 -50 0 0 306 0 305 47 -3 48 -3 2 -302z m2733
117 c40 0 40 0 40 -40 l0 -40 -40 0 -40 0 0 -118 c0 -130 5 -142 57 -142 32 0
33 -1 33 -40 l0 -40 -73 0 c-66 0 -76 3 -98 26 -23 24 -24 33 -27 169 l-3 144
-32 3 c-29 3 -32 6 -35 41 -3 36 -3 37 32 37 l36 0 0 64 0 65 53 3 52 3 3 -67
3 -68 39 0z m-3813 -9 c49 -23 87 -75 103 -142 21 -83 25 -81 -142 -80 -163 2
-164 2 -133 -59 33 -63 123 -76 164 -25 15 20 28 25 65 25 54 0 57 -9 22 -61
-88 -129 -313 -88 -355 64 -54 192 107 354 276 278z m810 0 c25 -12 52 -35 67
-58 24 -37 51 -132 44 -154 -3 -8 -50 -11 -145 -10 -78 1 -144 -2 -146 -6 -3
-5 3 -27 13 -50 30 -67 110 -81 161 -27 17 18 33 24 66 24 48 0 49 0 29 -39
-22 -42 -81 -89 -122 -97 -170 -32 -297 123 -240 293 17 52 72 115 116 132 40
16 112 12 157 -8z m640 -14 c107 -74 125 -255 33 -347 -77 -77 -197 -79 -281
-3 -92 84 -87 273 10 342 47 34 73 41 137 38 48 -2 71 -9 101 -30z m469 -2
c51 -39 78 -104 78 -185 0 -80 -15 -127 -55 -168 -58 -59 -148 -66 -208 -17
-16 14 -30 25 -32 25 -2 0 -2 -45 -1 -100 l4 -100 -56 0 -56 0 0 285 0 285 56
0 c55 0 56 -1 51 -26 l-4 -25 21 20 c53 50 141 52 202 6z m433 20 c16 -8 31
-22 35 -31 5 -14 10 -12 36 10 71 59 196 42 233 -32 10 -18 16 -83 21 -194 l6
-168 -55 0 -55 0 0 135 c0 183 -21 229 -96 211 -47 -12 -56 -43 -58 -201 l-1
-145 -47 0 -48 0 0 133 c0 166 -13 202 -74 202 -31 0 -43 -6 -60 -28 -19 -26
-21 -42 -21 -168 l0 -139 -52 0 -53 0 0 210 0 210 50 0 c48 0 50 -1 50 -27 l0
-26 23 20 c50 46 112 56 166 28z m664 -1 c67 -34 104 -90 114 -175 l6 -49
-146 0 c-80 0 -148 -3 -150 -7 -2 -5 0 -23 5 -41 10 -36 57 -72 95 -72 33 0
72 21 78 42 5 15 17 18 61 18 l54 0 -20 -39 c-37 -73 -106 -107 -197 -98 -69
7 -116 37 -150 95 -36 61 -39 166 -6 227 25 47 68 90 103 104 39 15 118 13
153 -5z m483 -3 c54 -33 66 -76 72 -253 l5 -158 -56 0 -56 0 -3 151 -3 151
-28 24 c-15 13 -39 24 -52 24 -13 0 -37 -11 -52 -24 l-28 -24 -3 -151 -3 -151
-55 0 -54 0 0 210 0 210 55 0 c53 0 55 -1 55 -27 1 -25 2 -26 11 -10 27 46
140 62 195 28z m-3220 -140 l42 -145 25 85 c14 46 34 112 44 146 l18 63 53 0
c28 0 52 -3 52 -7 0 -3 -32 -98 -71 -210 l-72 -203 -47 0 -47 0 -72 205 c-39
112 -71 207 -71 210 0 3 24 5 53 3 l52 -3 41 -144z"/>
<path d="M4991 1544 c-72 -51 -65 -216 11 -252 37 -17 86 -4 112 31 27 37 34
132 12 179 -26 55 -88 74 -135 42z"/>
<path d="M5437 1540 c-14 -11 -30 -33 -35 -50 l-11 -30 99 0 99 0 -11 30 c-13
38 -53 70 -88 70 -15 0 -39 -9 -53 -20z"/>
<path d="M6239 1531 c-16 -16 -29 -39 -29 -50 0 -20 6 -21 90 -21 84 0 90 1
90 21 0 32 -53 79 -90 79 -22 0 -41 -9 -61 -29z"/>
<path d="M6858 1540 c-36 -28 -53 -99 -38 -162 32 -132 176 -126 196 8 18 125
-77 218 -158 154z"/>
<path d="M7327 1549 c-43 -25 -62 -134 -36 -208 21 -59 101 -80 144 -37 22 22
45 81 45 116 0 36 -24 94 -47 116 -27 25 -75 31 -106 13z"/>
<path d="M8449 1531 c-16 -16 -29 -39 -29 -50 0 -20 5 -21 95 -21 52 0 95 3
95 6 0 3 -7 21 -15 39 -29 60 -99 73 -146 26z"/>
</g>
</svg>
